<?xml version="1.0" standalone="no"?>
<!DOCTYPE svg PUBLIC "-//W3C//DTD SVG 20010904//EN"
 "http://www.w3.org/TR/2001/REC-SVG-20010904/DTD/svg10.dtd">
<svg version="1.0" xmlns="http://www.w3.org/2000/svg"
 width="260.000000pt" height="260.000000pt" viewBox="0 0 260.000000 260.000000"
 preserveAspectRatio="xMidYMid meet">
<metadata>
Created by potrace 1.11, written by Peter Selinger 2001-2013
</metadata>
<g transform="translate(0.000000,260.000000) scale(0.100000,-0.100000)"
fill="#000000" stroke="none">
<path d="M0 1300 l0 -1300 1300 0 1300 0 0 1300 0 1300 -1300 0 -1300 0 0
-1300z m1893 926 c31 18 57 31 57 28 0 -3 -14 -31 -31 -62 l-32 -57 32 -51
c17 -28 31 -54 31 -58 0 -4 -26 8 -58 26 l-59 32 -56 -32 c-31 -18 -59 -32
-62 -32 -2 0 12 27 31 61 23 39 32 64 27 72 -5 7 -22 34 -38 61 l-28 49 64
-35 64 -36 58 34z m271 -717 c29 17 56 31 60 31 3 0 -8 -26 -26 -57 l-32 -56
32 -59 c18 -32 30 -58 26 -58 -4 0 -31 14 -61 31 l-54 31 -59 -36 c-33 -19
-60 -33 -60 -31 0 2 14 28 31 57 18 29 32 58 32 63 0 6 -14 34 -32 63 -17 29
-31 55 -31 57 0 2 27 -12 60 -31 l60 -35 54 30z m-734 -104 c30 18 57 32 59
30 2 -2 -11 -27 -28 -55 -17 -28 -31 -55 -31 -62 0 -6 14 -33 30 -60 17 -26
30 -51 30 -54 0 -3 -25 8 -55 25 -30 17 -59 31 -65 31 -5 0 -32 -14 -60 -31
-28 -17 -53 -30 -55 -28 -2 2 12 29 30 59 l33 55 -35 64 -35 63 63 -35 64 -35
55 33z m-251 -607 l58 -32 52 33 c29 18 55 30 58 28 2 -3 -10 -29 -28 -58
l-32 -54 32 -57 c17 -31 31 -59 31 -62 0 -3 -26 10 -57 29 l-57 34 -64 -35
-64 -36 36 64 35 64 -34 57 c-19 31 -32 57 -29 57 3 0 31 -14 63 -32z m-734
-233 c30 -17 32 -16 84 15 29 17 55 29 58 27 2 -3 -10 -29 -27 -58 -35 -59
-37 -47 23 -148 l20 -33 -24 12 c-13 7 -42 24 -63 38 -44 27 -34 29 -135 -31
l-33 -20 12 24 c7 13 24 41 37 62 l24 38 -37 66 -37 66 34 -20 c19 -11 48 -28
64 -38z"/>
</g>
</svg>
